<?xml version="1.0" encoding="UTF-8" standalone="no"?>
<!DOCTYPE svg PUBLIC "-//W3C//DTD SVG 1.1//EN"
 "http://www.w3.org/Graphics/SVG/1.1/DTD/svg11.dtd">
<!-- Generated by graphviz version 2.43.0 (0)
 -->
<!-- Title: recipe_execution_1759626614_0 Pages: 1 -->
<svg width="1146pt" height="3077pt"
 viewBox="0.00 0.00 275.00 738.47" xmlns="http://www.w3.org/2000/svg" xmlns:xlink="http://www.w3.org/1999/xlink">
<g id="graph0" class="graph" transform="scale(4.17 4.17) rotate(0) translate(4 734.47)">
<title>recipe_execution_1759626614_0</title>
<polygon fill="white" stroke="transparent" points="-4,4 -4,-734.47 271,-734.47 271,4 -4,4"/>
<text text-anchor="middle" x="133.5" y="-715.27" font-family="Arial" font-size="14.00">Recipe: Sample Data Processing Pipeline</text>
<!-- recipe_root -->
<g id="node1" class="node">
<title>recipe_root</title>
<path fill="#e3f2fd" stroke="black" stroke-width="2" d="M226,-707.47C226,-707.47 41,-707.47 41,-707.47 35,-707.47 29,-701.47 29,-695.47 29,-695.47 29,-683.47 29,-683.47 29,-677.47 35,-671.47 41,-671.47 41,-671.47 226,-671.47 226,-671.47 232,-671.47 238,-677.47 238,-683.47 238,-683.47 238,-695.47 238,-695.47 238,-701.47 232,-707.47 226,-707.47"/>
<text text-anchor="middle" x="133.5" y="-686.37" font-family="Arial" font-size="12.00">Sample Data Processing Pipeline</text>
</g>
<!-- step_0_Load Data -->
<g id="node2" class="node">
<title>step_0_Load Data</title>
<ellipse fill="#f3e5f5" stroke="black" stroke-width="2" cx="133.5" cy="-615.38" rx="59.29" ry="19.18"/>
<text text-anchor="middle" x="133.5" y="-612.28" font-family="Arial" font-size="12.00">Load Data</text>
</g>
<!-- recipe_root&#45;&gt;step_0_Load Data -->
<g id="edge1" class="edge">
<title>recipe_root&#45;&gt;step_0_Load Data</title>
<path fill="none" stroke="#4caf50" stroke-width="1.5" d="M133.5,-671.39C133.5,-663.42 133.5,-653.74 133.5,-644.73"/>
<polygon fill="#4caf50" stroke="#4caf50" stroke-width="1.5" points="137,-644.6 133.5,-634.6 130,-644.6 137,-644.6"/>
</g>
<!-- step_1_Data Validation -->
<g id="node3" class="node">
<title>step_1_Data Validation</title>
<ellipse fill="#f3e5f5" stroke="black" stroke-width="2" cx="133.5" cy="-530.19" rx="77.56" ry="19.18"/>
<text text-anchor="middle" x="133.5" y="-527.09" font-family="Arial" font-size="12.00">Data Validation</text>
</g>
<!-- step_0_Load Data&#45;&gt;step_1_Data Validation -->
<g id="edge2" class="edge">
<title>step_0_Load Data&#45;&gt;step_1_Data Validation</title>
<path fill="none" stroke="#4caf50" stroke-width="1.5" d="M132.29,-596.03C131.96,-590.34 131.66,-584.06 131.5,-578.29 131.34,-572.36 131.43,-566.01 131.64,-559.95"/>
<polygon fill="#4caf50" stroke="#4caf50" stroke-width="1.5" points="135.15,-559.68 132.12,-549.53 128.16,-559.35 135.15,-559.68"/>
</g>
<!-- step_0_Load Data&#45;&gt;step_1_Data Validation -->
<g id="edge3" class="edge">
<title>step_0_Load Data&#45;&gt;step_1_Data Validation</title>
<path fill="none" stroke="#2196f3" stroke-width="1.5" d="M133.5,-595.92C133.5,-585.18 133.5,-571.43 133.5,-559.37"/>
<polygon fill="#2196f3" stroke="#2196f3" stroke-width="1.5" points="133.5,-549.32 138,-559.32 133.75,-554.32 133.75,-559.32 133.5,-559.32 133.25,-559.32 133.25,-554.32 129,-559.32 133.5,-549.32 133.5,-549.32"/>
<text text-anchor="middle" x="151" y="-570.29" font-family="Arial" font-size="10.00">requires</text>
</g>
<!-- step_2_Data Cleaning -->
<g id="node4" class="node">
<title>step_2_Data Cleaning</title>
<ellipse fill="#f3e5f5" stroke="black" stroke-width="2" cx="133.5" cy="-445.01" rx="74.91" ry="19.18"/>
<text text-anchor="middle" x="133.5" y="-441.91" font-family="Arial" font-size="12.00">Data Cleaning</text>
</g>
<!-- step_1_Data Validation&#45;&gt;step_2_Data Cleaning -->
<g id="edge4" class="edge">
<title>step_1_Data Validation&#45;&gt;step_2_Data Cleaning</title>
<path fill="none" stroke="#4caf50" stroke-width="1.5" d="M132.12,-510.86C131.62,-502.15 131.24,-491.59 131.5,-482.1 131.57,-479.67 131.66,-477.14 131.77,-474.61"/>
<polygon fill="#4caf50" stroke="#4caf50" stroke-width="1.5" points="135.28,-474.53 132.29,-464.36 128.29,-474.17 135.28,-474.53"/>
</g>
<!-- step_1_Data Validation&#45;&gt;step_2_Data Cleaning -->
<g id="edge5" class="edge">
<title>step_1_Data Validation&#45;&gt;step_2_Data Cleaning</title>
<path fill="none" stroke="#2196f3" stroke-width="1.5" d="M133.5,-510.73C133.5,-500 133.5,-486.25 133.5,-474.18"/>
<polygon fill="#2196f3" stroke="#2196f3" stroke-width="1.5" points="133.5,-464.13 138,-474.13 133.75,-469.13 133.75,-474.13 133.5,-474.13 133.25,-474.13 133.25,-469.13 129,-474.13 133.5,-464.13 133.5,-464.13"/>
<text text-anchor="middle" x="151" y="-485.1" font-family="Arial" font-size="10.00">requires</text>
</g>
<!-- step_3_Feature Engineering -->
<g id="node5" class="node">
<title>step_3_Feature Engineering</title>
<ellipse fill="#f3e5f5" stroke="black" stroke-width="2" cx="133.5" cy="-359.83" rx="97.66" ry="19.18"/>
<text text-anchor="middle" x="133.5" y="-356.73" font-family="Arial" font-size="12.00">Feature Engineering</text>
</g>
<!-- step_2_Data Cleaning&#45;&gt;step_3_Feature Engineering -->
<g id="edge6" class="edge">
<title>step_2_Data Cleaning&#45;&gt;step_3_Feature Engineering</title>
<path fill="none" stroke="#4caf50" stroke-width="1.5" d="M132.12,-425.68C131.62,-416.97 131.24,-406.41 131.5,-396.92 131.57,-394.48 131.66,-391.96 131.77,-389.42"/>
<polygon fill="#4caf50" stroke="#4caf50" stroke-width="1.5" points="135.28,-389.34 132.29,-379.18 128.29,-388.99 135.28,-389.34"/>
</g>
<!-- step_2_Data Cleaning&#45;&gt;step_3_Feature Engineering -->
<g id="edge7" class="edge">
<title>step_2_Data Cleaning&#45;&gt;step_3_Feature Engineering</title>
<path fill="none" stroke="#2196f3" stroke-width="1.5" d="M133.5,-425.55C133.5,-414.81 133.5,-401.06 133.5,-389"/>
<polygon fill="#2196f3" stroke="#2196f3" stroke-width="1.5" points="133.5,-378.95 138,-388.95 133.75,-383.95 133.75,-388.95 133.5,-388.95 133.25,-388.95 133.25,-383.95 129,-388.95 133.5,-378.95 133.5,-378.95"/>
<text text-anchor="middle" x="151" y="-399.92" font-family="Arial" font-size="10.00">requires</text>
</g>
<!-- step_4_Model Training -->
<g id="node6" class="node">
<title>step_4_Model Training</title>
<ellipse fill="#f3e5f5" stroke="black" stroke-width="2" cx="133.5" cy="-274.64" rx="76.24" ry="19.18"/>
<text text-anchor="middle" x="133.5" y="-271.54" font-family="Arial" font-size="12.00">Model Training</text>
</g>
<!-- step_3_Feature Engineering&#45;&gt;step_4_Model Training -->
<g id="edge8" class="edge">
<title>step_3_Feature Engineering&#45;&gt;step_4_Model Training</title>
<path fill="none" stroke="#4caf50" stroke-width="1.5" d="M132.12,-340.49C131.62,-331.78 131.24,-321.22 131.5,-311.74 131.57,-309.3 131.66,-306.77 131.77,-304.24"/>
<polygon fill="#4caf50" stroke="#4caf50" stroke-width="1.5" points="135.28,-304.16 132.29,-294 128.29,-303.81 135.28,-304.16"/>
</g>
<!-- step_3_Feature Engineering&#45;&gt;step_4_Model Training -->
<g id="edge9" class="edge">
<title>step_3_Feature Engineering&#45;&gt;step_4_Model Training</title>
<path fill="none" stroke="#2196f3" stroke-width="1.5" d="M133.5,-340.37C133.5,-329.63 133.5,-315.88 133.5,-303.82"/>
<polygon fill="#2196f3" stroke="#2196f3" stroke-width="1.5" points="133.5,-293.77 138,-303.77 133.75,-298.77 133.75,-303.77 133.5,-303.77 133.25,-303.77 133.25,-298.77 129,-303.77 133.5,-293.77 133.5,-293.77"/>
<text text-anchor="middle" x="151" y="-314.74" font-family="Arial" font-size="10.00">requires</text>
</g>
<!-- step_5_Model Evaluation -->
<g id="node7" class="node">
<title>step_5_Model Evaluation</title>
<ellipse fill="#f3e5f5" stroke="black" stroke-width="2" cx="133.5" cy="-189.46" rx="86.03" ry="19.18"/>
<text text-anchor="middle" x="133.5" y="-186.36" font-family="Arial" font-size="12.00">Model Evaluation</text>
</g>
<!-- step_4_Model Training&#45;&gt;step_5_Model Evaluation -->
<g id="edge10" class="edge">
<title>step_4_Model Training&#45;&gt;step_5_Model Evaluation</title>
<path fill="none" stroke="#4caf50" stroke-width="1.5" d="M132.29,-255.29C131.96,-249.61 131.66,-243.32 131.5,-237.55 131.34,-231.62 131.43,-225.27 131.64,-219.22"/>
<polygon fill="#4caf50" stroke="#4caf50" stroke-width="1.5" points="135.15,-218.95 132.12,-208.79 128.16,-218.62 135.15,-218.95"/>
</g>
<!-- step_4_Model Training&#45;&gt;step_5_Model Evaluation -->
<g id="edge11" class="edge">
<title>step_4_Model Training&#45;&gt;step_5_Model Evaluation</title>
<path fill="none" stroke="#2196f3" stroke-width="1.5" d="M133.5,-255.18C133.5,-244.45 133.5,-230.7 133.5,-218.63"/>
<polygon fill="#2196f3" stroke="#2196f3" stroke-width="1.5" points="133.5,-208.58 138,-218.58 133.75,-213.58 133.75,-218.58 133.5,-218.58 133.25,-218.58 133.25,-213.58 129,-218.58 133.5,-208.58 133.5,-208.58"/>
<text text-anchor="middle" x="151" y="-229.55" font-family="Arial" font-size="10.00">requires</text>
</g>
<!-- step_6_Generate Report -->
<g id="node8" class="node">
<title>step_6_Generate Report</title>
<ellipse fill="#f3e5f5" stroke="black" stroke-width="2" cx="133.5" cy="-104.28" rx="82.96" ry="19.18"/>
<text text-anchor="middle" x="133.5" y="-101.18" font-family="Arial" font-size="12.00">Generate Report</text>
</g>
<!-- step_5_Model Evaluation&#45;&gt;step_6_Generate Report -->
<g id="edge12" class="edge">
<title>step_5_Model Evaluation&#45;&gt;step_6_Generate Report</title>
<path fill="none" stroke="#4caf50" stroke-width="1.5" d="M132.29,-170.11C131.96,-164.42 131.66,-158.14 131.5,-152.37 131.34,-146.44 131.43,-140.09 131.64,-134.03"/>
<polygon fill="#4caf50" stroke="#4caf50" stroke-width="1.5" points="135.15,-133.76 132.12,-123.61 128.16,-133.44 135.15,-133.76"/>
</g>
<!-- step_5_Model Evaluation&#45;&gt;step_6_Generate Report -->
<g id="edge13" class="edge">
<title>step_5_Model Evaluation&#45;&gt;step_6_Generate Report</title>
<path fill="none" stroke="#2196f3" stroke-width="1.5" d="M133.5,-170C133.5,-159.26 133.5,-145.51 133.5,-133.45"/>
<polygon fill="#2196f3" stroke="#2196f3" stroke-width="1.5" points="133.5,-123.4 138,-133.4 133.75,-128.4 133.75,-133.4 133.5,-133.4 133.25,-133.4 133.25,-128.4 129,-133.4 133.5,-123.4 133.5,-123.4"/>
<text text-anchor="middle" x="151" y="-144.37" font-family="Arial" font-size="10.00">requires</text>
</g>
<!-- step_7_Save Results -->
<g id="node9" class="node">
<title>step_7_Save Results</title>
<ellipse fill="#f3e5f5" stroke="black" stroke-width="2" cx="133.5" cy="-19.09" rx="70.92" ry="19.18"/>
<text text-anchor="middle" x="133.5" y="-15.99" font-family="Arial" font-size="12.00">Save Results</text>
</g>
<!-- step_6_Generate Report&#45;&gt;step_7_Save Results -->
<g id="edge14" class="edge">
<title>step_6_Generate Report&#45;&gt;step_7_Save Results</title>
<path fill="none" stroke="#4caf50" stroke-width="1.5" d="M132.29,-84.92C131.96,-79.24 131.66,-72.96 131.5,-67.18 131.34,-61.25 131.43,-54.9 131.64,-48.85"/>
<polygon fill="#4caf50" stroke="#4caf50" stroke-width="1.5" points="135.15,-48.58 132.12,-38.43 128.16,-48.25 135.15,-48.58"/>
</g>
<!-- step_6_Generate Report&#45;&gt;step_7_Save Results -->
<g id="edge15" class="edge">
<title>step_6_Generate Report&#45;&gt;step_7_Save Results</title>
<path fill="none" stroke="#2196f3" stroke-width="1.5" d="M133.5,-84.81C133.5,-74.08 133.5,-60.33 133.5,-48.26"/>
<polygon fill="#2196f3" stroke="#2196f3" stroke-width="1.5" points="133.5,-38.22 138,-48.22 133.75,-43.22 133.75,-48.22 133.5,-48.22 133.25,-48.22 133.25,-43.22 129,-48.22 133.5,-38.22 133.5,-38.22"/>
<text text-anchor="middle" x="151" y="-59.18" font-family="Arial" font-size="10.00">requires</text>
</g>
</g>
</svg>
